<svg width="114" height="48" viewBox="0 0 114 48" fill="none" xmlns="http://www.w3.org/2000/svg">
<path fill-rule="evenodd" clip-rule="evenodd" d="M89.4633 48C102.765 48 113.548 37.2549 113.548 24C113.548 10.7452 102.765 0 89.4633 0C76.1615 0 65.3784 10.7452 65.3784 24C65.3784 37.2549 76.1615 48 89.4633 48ZM75.5361 34.88H81.0241V12.13H75.5361V34.88ZM86.4559 12.13V34.88H93.9667C95.9425 34.8696 97.7299 34.4008 99.3293 33.4738C100.939 32.5363 102.183 31.2446 103.061 29.5987C103.95 27.9426 104.394 26.0726 104.394 23.9894V22.9426C104.384 20.88 103.924 19.0206 103.014 17.3643C102.115 15.6977 100.861 14.4112 99.2509 13.505C97.6411 12.5883 95.8273 12.13 93.8098 12.13H86.4559ZM91.9596 30.6613V16.3643H93.8098C95.4301 16.3643 96.6637 16.9216 97.5104 18.0363C98.3572 19.1509 98.7804 20.807 98.7804 23.005V23.9894C98.7804 26.1978 98.3572 27.8643 97.5104 28.9894C96.6637 30.104 95.4511 30.6613 93.8726 30.6613H91.9596Z" fill="#943DBD"/>
<path fill-rule="evenodd" clip-rule="evenodd" d="M89.4633 48C102.765 48 113.548 37.2549 113.548 24C113.548 10.7452 102.765 0 89.4633 0C76.1615 0 65.3784 10.7452 65.3784 24C65.3784 37.2549 76.1615 48 89.4633 48ZM75.5361 34.88H81.0241V12.13H75.5361V34.88ZM86.4559 12.13V34.88H93.9667C95.9425 34.8696 97.7299 34.4008 99.3293 33.4738C100.939 32.5363 102.183 31.2446 103.061 29.5987C103.95 27.9426 104.394 26.0726 104.394 23.9894V22.9426C104.384 20.88 103.924 19.0206 103.014 17.3643C102.115 15.6977 100.861 14.4112 99.2509 13.505C97.6411 12.5883 95.8273 12.13 93.8098 12.13H86.4559ZM91.9596 30.6613V16.3643H93.8098C95.4301 16.3643 96.6637 16.9216 97.5104 18.0363C98.3572 19.1509 98.7804 20.807 98.7804 23.005V23.9894C98.7804 26.1978 98.3572 27.8643 97.5104 28.9894C96.6637 30.104 95.4511 30.6613 93.8726 30.6613H91.9596Z" fill="url(#paint0_linear_393_60)"/>
<path d="M7.63239 32.032C8.33894 32.032 8.91698 31.9787 9.36656 31.872C9.8375 31.744 10.2121 31.584 10.4905 31.392C10.7688 31.1787 10.9615 30.9333 11.0686 30.656C11.1755 30.3787 11.2291 30.0693 11.2291 29.728C11.2291 29.0027 10.8865 28.4053 10.2015 27.936C9.51637 27.4453 8.33894 26.9227 6.66899 26.368C5.9411 26.112 5.21319 25.824 4.48529 25.504C3.7574 25.1627 3.10443 24.7467 2.52639 24.256C1.94835 23.744 1.47737 23.136 1.11341 22.432C0.749456 21.7067 0.567487 20.832 0.567487 19.808C0.567487 18.784 0.760166 17.8667 1.14552 17.056C1.53088 16.224 2.07681 15.52 2.7833 14.944C3.48979 14.368 4.34613 13.9307 5.35235 13.632C6.35857 13.312 7.49322 13.152 8.75641 13.152C10.255 13.152 11.5503 13.312 12.6421 13.632C13.734 13.952 14.6331 14.304 15.3396 14.688L13.8945 18.624C13.2736 18.304 12.5779 18.0267 11.8072 17.792C11.0578 17.536 10.1479 17.408 9.07754 17.408C7.87858 17.408 7.01153 17.5787 6.47631 17.92C5.9625 18.24 5.7056 18.7413 5.7056 19.424C5.7056 19.8293 5.80194 20.1707 5.99461 20.448C6.18729 20.7253 6.45491 20.9813 6.79744 21.216C7.1614 21.4293 7.56816 21.632 8.01774 21.824C8.48875 21.9947 9.00256 22.176 9.55924 22.368C10.7153 22.7947 11.7214 23.2213 12.5779 23.648C13.4342 24.0533 14.1407 24.5333 14.6973 25.088C15.2754 25.6427 15.7035 26.2933 15.9819 27.04C16.2601 27.7867 16.3993 28.6933 16.3993 29.76C16.3993 31.8293 15.6713 33.44 14.2157 34.592C12.7598 35.7227 10.5653 36.288 7.63239 36.288C6.64759 36.288 5.75911 36.224 4.96699 36.096C4.17487 35.9893 3.46838 35.8507 2.84752 35.68C2.24808 35.5093 1.72356 35.328 1.27398 35.136C0.845796 34.944 0.481857 34.7627 0.182129 34.592L1.59511 30.624C2.25878 30.9867 3.07232 31.3173 4.03571 31.616C5.02051 31.8933 6.21941 32.032 7.63239 32.032ZM35.9572 35.264C35.1437 35.4987 34.0947 35.712 32.8101 35.904C31.5256 36.1173 30.1769 36.224 28.7639 36.224C27.3295 36.224 26.1306 36.032 25.1672 35.648C24.2252 35.264 23.476 34.7307 22.9193 34.048C22.3626 33.344 21.9666 32.512 21.7311 31.552C21.4955 30.592 21.3779 29.536 21.3779 28.384V19.008H26.1627V27.808C26.1627 29.344 26.3662 30.4533 26.7729 31.136C27.1796 31.8187 27.9397 32.16 29.0529 32.16C29.3954 32.16 29.7594 32.1493 30.1448 32.128C30.5301 32.0853 30.8726 32.0427 31.1724 32V19.008H35.9572V35.264ZM52.8766 27.296C52.8766 24.224 51.742 22.688 49.4726 22.688C48.9803 22.688 48.4878 22.752 47.9953 22.88C47.5244 23.008 47.139 23.168 46.8393 23.36V32.032C47.0748 32.0747 47.3746 32.1173 47.7384 32.16C48.1024 32.1813 48.4986 32.192 48.9266 32.192C50.2327 32.192 51.2174 31.744 51.881 30.848C52.5448 29.952 52.8766 28.768 52.8766 27.296ZM57.7578 27.424C57.7578 28.768 57.5545 29.984 57.1476 31.072C56.7622 32.16 56.195 33.088 55.4456 33.856C54.6964 34.624 53.7757 35.2213 52.6839 35.648C51.592 36.0533 50.3504 36.256 48.9587 36.256C48.3807 36.256 47.7706 36.224 47.1283 36.16C46.5075 36.1173 45.8866 36.0533 45.2657 35.968C44.6663 35.8827 44.0883 35.7867 43.5316 35.68C42.9751 35.552 42.4826 35.424 42.0544 35.296V11.776L46.8393 11.008V19.392C47.3746 19.1573 47.9311 18.976 48.5092 18.848C49.0872 18.72 49.7081 18.656 50.3717 18.656C51.5707 18.656 52.6304 18.8693 53.5509 19.296C54.4716 19.7013 55.2423 20.288 55.8631 21.056C56.484 21.824 56.9549 22.752 57.2761 23.84C57.5972 24.9067 57.7578 26.1013 57.7578 27.424Z" fill="url(#paint1_linear_393_60)"/>
<defs>
<linearGradient id="paint0_linear_393_60" x1="89.4633" y1="0" x2="89.4633" y2="48" gradientUnits="userSpaceOnUse">
<stop stop-color="#F50083"/>
<stop offset="1" stop-color="#720497"/>
</linearGradient>
<linearGradient id="paint1_linear_393_60" x1="29.0906" y1="2.74574e-06" x2="29.0906" y2="48" gradientUnits="userSpaceOnUse">
<stop stop-color="#F50184"/>
<stop offset="1" stop-color="#770497"/>
</linearGradient>
</defs>
</svg>
